<svg width="1287" height="62" viewBox="0 0 1287 62" fill="none" xmlns="http://www.w3.org/2000/svg">
<path d="M0.5 20.5156L1.09277 20.4043C70.0603 7.41043 116.388 5.59984 153.83 8.99902C191.284 12.3993 219.855 21.0099 253.386 28.8994C352.594 52.2424 555.603 80.5217 756.097 40.9033C956.445 1.31352 1107.46 -2.57826 1285.86 48.3936L1286.5 48.5752V41.5352L1286.14 41.4316C1107.54 -9.59644 956.355 -5.68824 755.903 33.9219C555.597 73.5034 352.74 45.2494 253.614 21.9258C220.145 14.0506 191.466 5.41151 153.92 2.00293C116.362 -1.40667 69.9394 0.414829 0.907227 13.4209L0.5 13.498V20.5156Z" fill="#060B44" stroke="#AEB7EA"/>
</svg>
